<?xml version="1.0" encoding="UTF-8"?>
<svg width="120" height="40" viewBox="0 0 120 40" xmlns="http://www.w3.org/2000/svg">
  <!-- Background shape for 'j' -->
  <circle cx="20" cy="20" r="16" fill="#3182CE" opacity="0.1"/>
  
  <!-- Main Text "jT" -->
  <g fill="#3182CE">
    <!-- Stylized 'j' -->
    <path d="M15 8 Q15 8 15 8.5 L15 24 Q15 28 11 28 Q9 28 8 27 L9 24 Q10 24.5 11 24.5 Q12 24.5 12 23 L12 8.5 Q12 8 12.5 8 L14.5 8 Q15 8 15 8.5 Z" />
    <circle cx="13.5" cy="4" r="2" />
    
    <!-- Stylized 'T' -->
    <path d="M20 8 L32 8 Q32.5 8 32.5 8.5 L32.5 11 Q32.5 11.5 32 11.5 L28 11.5 L28 27.5 Q28 28 27.5 28 L24.5 28 Q24 28 24 27.5 L24 11.5 L20 11.5 Q19.5 11.5 19.5 11 L19.5 8.5 Q19.5 8 20 8 Z" />
  </g>

  <!-- Subtitle "Track" -->
  <text x="38" y="28" font-family="Arial" font-size="20" font-weight="300" fill="#4A5568">rack</text>

  <!-- Decorative line -->
  <line x1="35" y1="24" x2="85" y2="24" stroke="#3182CE" stroke-width="0.5" opacity="0.3"/>
</svg> 